<?xml version="1.0" encoding="UTF-8"?>
<!DOCTYPE svg  PUBLIC '-//W3C//DTD SVG 1.1//EN'  'http://www.w3.org/Graphics/SVG/1.1/DTD/svg11.dtd'>
<!--<svg width="100%" height="100%"  xml:space="preserve" xmlns="http://www.w3.org/2000/svg">
  <defs>
    <pattern id="triangle-pattern-random" x="0" y="0" width="160" height="138.56406460551017" patternUnits="userSpaceOnUse" patternTransform="rotate(0)"><polygon points="19.999999999999996,34.64101615137754 2.8282006365997515e-15,0 -19.999999999999996,34.64101615137754" fill="#ffffff" opacity="0.47" stroke="#ffffff" stroke-width="1"></polygon><polygon points="20,34.64101615137754 40,5.329070518200751e-15 3.552713678800501e-15,-1.0658141036401503e-14" fill="#ffffff" opacity="0.53" stroke="#ffffff" stroke-width="1"></polygon><polygon points="60,34.64101615137754 40,0 20.000000000000004,34.64101615137754" fill="#ffffff" opacity="0.22" stroke="#ffffff" stroke-width="1"></polygon><polygon points="60,34.64101615137754 80,5.329070518200751e-15 40,-1.0658141036401503e-14" fill="#ffffff" opacity="0.05" stroke="#ffffff" stroke-width="1"></polygon><polygon points="100,34.64101615137754 80,0 60,34.64101615137754" fill="#ffffff" opacity="0.6" stroke="#ffffff" stroke-width="1"></polygon><polygon points="100,34.64101615137754 120,5.329070518200751e-15 80,-1.0658141036401503e-14" fill="#ffffff" opacity="0.72" stroke="#ffffff" stroke-width="1"></polygon><polygon points="140,34.64101615137754 120,0 100,34.64101615137754" fill="#ffffff" opacity="0.59" stroke="#ffffff" stroke-width="1"></polygon><polygon points="140,34.64101615137754 160,5.329070518200751e-15 120,-1.0658141036401503e-14" fill="#ffffff" opacity="0.08" stroke="#ffffff" stroke-width="1"></polygon><polygon points="180,34.64101615137754 160,0 140,34.64101615137754" fill="#ffffff" opacity="0.47" stroke="#ffffff" stroke-width="1"></polygon><polygon points="0,69.28203230275508 20,34.64101615137755 -19.999999999999996,34.641016151377535" fill="#ffffff" opacity="0.31" stroke="#ffffff" stroke-width="1"></polygon><polygon points="40,69.28203230275508 20.000000000000004,34.64101615137754 3.552713678800501e-15,69.28203230275508" fill="#ffffff" opacity="0.5" stroke="#ffffff" stroke-width="1"></polygon><polygon points="40,69.28203230275508 60,34.64101615137755 20.000000000000004,34.641016151377535" fill="#ffffff" opacity="0.93" stroke="#ffffff" stroke-width="1"></polygon><polygon points="80,69.28203230275508 60,34.64101615137754 40,69.28203230275508" fill="#ffffff" opacity="0.6" stroke="#ffffff" stroke-width="1"></polygon><polygon points="80,69.28203230275508 100,34.64101615137755 60,34.641016151377535" fill="#ffffff" opacity="0.06" stroke="#ffffff" stroke-width="1"></polygon><polygon points="120,69.28203230275508 100,34.64101615137754 80,69.28203230275508" fill="#ffffff" opacity="0.45" stroke="#ffffff" stroke-width="1"></polygon><polygon points="120,69.28203230275508 140,34.64101615137755 100,34.641016151377535" fill="#ffffff" opacity="0.75" stroke="#ffffff" stroke-width="1"></polygon><polygon points="160,69.28203230275508 140,34.64101615137754 120,69.28203230275508" fill="#ffffff" opacity="0.84" stroke="#ffffff" stroke-width="1"></polygon><polygon points="160,69.28203230275508 180,34.64101615137755 140,34.641016151377535" fill="#ffffff" opacity="0.31" stroke="#ffffff" stroke-width="1"></polygon><polygon points="19.999999999999996,103.92304845413264 2.8282006365997515e-15,69.28203230275508 -19.999999999999996,103.92304845413264" fill="#ffffff" opacity="0.28" stroke="#ffffff" stroke-width="1"></polygon><polygon points="20,103.92304845413263 40,69.28203230275508 3.552713678800501e-15,69.28203230275507" fill="#ffffff" opacity="0.95" stroke="#ffffff" stroke-width="1"></polygon><polygon points="60,103.92304845413264 40,69.28203230275508 20.000000000000004,103.92304845413264" fill="#ffffff" opacity="0.4" stroke="#ffffff" stroke-width="1"></polygon><polygon points="60,103.92304845413263 80,69.28203230275508 40,69.28203230275507" fill="#ffffff" opacity="0.6" stroke="#ffffff" stroke-width="1"></polygon><polygon points="100,103.92304845413264 80,69.28203230275508 60,103.92304845413264" fill="#ffffff" opacity="0.87" stroke="#ffffff" stroke-width="1"></polygon><polygon points="100,103.92304845413263 120,69.28203230275508 80,69.28203230275507" fill="#ffffff" opacity="0.2" stroke="#ffffff" stroke-width="1"></polygon><polygon points="140,103.92304845413264 120,69.28203230275508 100,103.92304845413264" fill="#ffffff" opacity="0.47" stroke="#ffffff" stroke-width="1"></polygon><polygon points="140,103.92304845413263 160,69.28203230275508 120,69.28203230275507" fill="#ffffff" opacity="0.29" stroke="#ffffff" stroke-width="1"></polygon><polygon points="180,103.92304845413264 160,69.28203230275508 140,103.92304845413264" fill="#ffffff" opacity="0.28" stroke="#ffffff" stroke-width="1"></polygon><polygon points="0,138.56406460551017 20,103.92304845413263 -19.999999999999996,103.92304845413261" fill="#ffffff" opacity="0.79" stroke="#ffffff" stroke-width="1"></polygon><polygon points="40,138.56406460551017 20.000000000000004,103.92304845413263 3.552713678800501e-15,138.56406460551017" fill="#ffffff" opacity="0.13" stroke="#ffffff" stroke-width="1"></polygon><polygon points="40,138.56406460551017 60,103.92304845413263 20.000000000000004,103.92304845413261" fill="#ffffff" opacity="0.34" stroke="#ffffff" stroke-width="1"></polygon><polygon points="80,138.56406460551017 60,103.92304845413263 40,138.56406460551017" fill="#ffffff" opacity="0.2" stroke="#ffffff" stroke-width="1"></polygon><polygon points="80,138.56406460551017 100,103.92304845413263 60,103.92304845413261" fill="#ffffff" opacity="0.81" stroke="#ffffff" stroke-width="1"></polygon><polygon points="120,138.56406460551017 100,103.92304845413263 80,138.56406460551017" fill="#ffffff" opacity="0" stroke="#ffffff" stroke-width="1"></polygon><polygon points="120,138.56406460551017 140,103.92304845413263 100,103.92304845413261" fill="#ffffff" opacity="0.89" stroke="#ffffff" stroke-width="1"></polygon><polygon points="160,138.56406460551017 140,103.92304845413263 120,138.56406460551017" fill="#ffffff" opacity="0.28" stroke="#ffffff" stroke-width="1"></polygon><polygon points="160,138.56406460551017 180,103.92304845413263 140,103.92304845413261" fill="#ffffff" opacity="0.79" stroke="#ffffff" stroke-width="1"></polygon></pattern>
  </defs>
  <rect x="0" y="0" width="100%" height="100%" style="stroke: none; fill: url(#triangle-pattern-random);"></rect>
</svg>-->


<svg width="100%" height="100%"  xml:space="preserve" xmlns="http://www.w3.org/2000/svg">
  <defs>
    <pattern id="triangle-pattern-random" x="0" y="0" width="120" height="103.92304845413263" patternUnits="userSpaceOnUse" patternTransform="rotate(15)"><polygon points="14.999999999999998,25.98076211353316 2.1211504774498135e-15,0 -14.999999999999998,25.98076211353316" fill="#ffffff" opacity="0.08" stroke="#ffffff" stroke-width="1"></polygon><polygon points="15,25.980762113533157 30,3.552713678800501e-15 3.552713678800501e-15,-7.105427357601002e-15" fill="#ffffff" opacity="0.97" stroke="#ffffff" stroke-width="1"></polygon><polygon points="45,25.98076211353316 30.000000000000004,0 15.000000000000002,25.98076211353316" fill="#ffffff" opacity="0.92" stroke="#ffffff" stroke-width="1"></polygon><polygon points="45,25.980762113533157 60,3.552713678800501e-15 30.000000000000004,-7.105427357601002e-15" fill="#ffffff" opacity="0.07" stroke="#ffffff" stroke-width="1"></polygon><polygon points="75,25.98076211353316 60,0 45,25.98076211353316" fill="#ffffff" opacity="0.48" stroke="#ffffff" stroke-width="1"></polygon><polygon points="75,25.980762113533157 90,3.552713678800501e-15 60,-7.105427357601002e-15" fill="#ffffff" opacity="0.82" stroke="#ffffff" stroke-width="1"></polygon><polygon points="105,25.98076211353316 90,0 75,25.98076211353316" fill="#ffffff" opacity="0.49" stroke="#ffffff" stroke-width="1"></polygon><polygon points="105,25.980762113533157 120,3.552713678800501e-15 90,-7.105427357601002e-15" fill="#ffffff" opacity="0.21" stroke="#ffffff" stroke-width="1"></polygon><polygon points="135,25.98076211353316 120,0 105,25.98076211353316" fill="#ffffff" opacity="0.08" stroke="#ffffff" stroke-width="1"></polygon><polygon points="0,51.96152422706631 15,25.98076211353316 -14.999999999999996,25.98076211353315" fill="#ffffff" opacity="0.74" stroke="#ffffff" stroke-width="1"></polygon><polygon points="30,51.96152422706631 15.000000000000002,25.980762113533153 1.7763568394002505e-15,51.96152422706631" fill="#ffffff" opacity="0.46" stroke="#ffffff" stroke-width="1"></polygon><polygon points="30,51.96152422706631 45,25.98076211353316 15.000000000000004,25.98076211353315" fill="#ffffff" opacity="0.34" stroke="#ffffff" stroke-width="1"></polygon><polygon points="60,51.96152422706631 45,25.980762113533153 30,51.96152422706631" fill="#ffffff" opacity="0.74" stroke="#ffffff" stroke-width="1"></polygon><polygon points="60,51.96152422706631 75,25.98076211353316 45,25.98076211353315" fill="#ffffff" opacity="0.6" stroke="#ffffff" stroke-width="1"></polygon><polygon points="90,51.96152422706631 75,25.980762113533153 60,51.96152422706631" fill="#ffffff" opacity="0.02" stroke="#ffffff" stroke-width="1"></polygon><polygon points="90,51.96152422706631 105,25.98076211353316 75,25.98076211353315" fill="#ffffff" opacity="0.51" stroke="#ffffff" stroke-width="1"></polygon><polygon points="120,51.96152422706631 105,25.980762113533153 90,51.96152422706631" fill="#ffffff" opacity="0.67" stroke="#ffffff" stroke-width="1"></polygon><polygon points="120,51.96152422706631 135,25.98076211353316 105,25.98076211353315" fill="#ffffff" opacity="0.74" stroke="#ffffff" stroke-width="1"></polygon><polygon points="14.999999999999998,77.94228634059947 2.1211504774498135e-15,51.96152422706631 -14.999999999999998,77.94228634059947" fill="#ffffff" opacity="0" stroke="#ffffff" stroke-width="1"></polygon><polygon points="15,77.94228634059948 30,51.96152422706632 3.552713678800501e-15,51.961524227066306" fill="#ffffff" opacity="0.56" stroke="#ffffff" stroke-width="1"></polygon><polygon points="45,77.94228634059947 30.000000000000004,51.96152422706631 15.000000000000002,77.94228634059947" fill="#ffffff" opacity="0.84" stroke="#ffffff" stroke-width="1"></polygon><polygon points="45,77.94228634059948 60,51.96152422706632 30.000000000000004,51.961524227066306" fill="#ffffff" opacity="0.96" stroke="#ffffff" stroke-width="1"></polygon><polygon points="75,77.94228634059947 60,51.96152422706631 45,77.94228634059947" fill="#ffffff" opacity="0.91" stroke="#ffffff" stroke-width="1"></polygon><polygon points="75,77.94228634059948 90,51.96152422706632 60,51.961524227066306" fill="#ffffff" opacity="0.47" stroke="#ffffff" stroke-width="1"></polygon><polygon points="105,77.94228634059947 90,51.96152422706631 75,77.94228634059947" fill="#ffffff" opacity="0.7" stroke="#ffffff" stroke-width="1"></polygon><polygon points="105,77.94228634059948 120,51.96152422706632 90,51.961524227066306" fill="#ffffff" opacity="0.48" stroke="#ffffff" stroke-width="1"></polygon><polygon points="135,77.94228634059947 120,51.96152422706631 105,77.94228634059947" fill="#ffffff" opacity="0" stroke="#ffffff" stroke-width="1"></polygon><polygon points="0,103.92304845413261 15,77.94228634059947 -14.999999999999996,77.94228634059945" fill="#ffffff" opacity="0.68" stroke="#ffffff" stroke-width="1"></polygon><polygon points="30,103.92304845413263 15.000000000000002,77.94228634059948 1.7763568394002505e-15,103.92304845413263" fill="#ffffff" opacity="0.69" stroke="#ffffff" stroke-width="1"></polygon><polygon points="30,103.92304845413261 45,77.94228634059947 15.000000000000004,77.94228634059945" fill="#ffffff" opacity="0.63" stroke="#ffffff" stroke-width="1"></polygon><polygon points="60,103.92304845413263 45,77.94228634059948 30,103.92304845413263" fill="#ffffff" opacity="0.89" stroke="#ffffff" stroke-width="1"></polygon><polygon points="60,103.92304845413261 75,77.94228634059947 45,77.94228634059945" fill="#ffffff" opacity="0.91" stroke="#ffffff" stroke-width="1"></polygon><polygon points="90,103.92304845413263 75,77.94228634059948 60,103.92304845413263" fill="#ffffff" opacity="0.35" stroke="#ffffff" stroke-width="1"></polygon><polygon points="90,103.92304845413261 105,77.94228634059947 75,77.94228634059945" fill="#ffffff" opacity="0.2" stroke="#ffffff" stroke-width="1"></polygon><polygon points="120,103.92304845413263 105,77.94228634059948 90,103.92304845413263" fill="#ffffff" opacity="0.64" stroke="#ffffff" stroke-width="1"></polygon><polygon points="120,103.92304845413261 135,77.94228634059947 105,77.94228634059945" fill="#ffffff" opacity="0.68" stroke="#ffffff" stroke-width="1"></polygon></pattern>
  </defs>
  <rect x="0" y="0" width="100%" height="100%" style="stroke: none; fill: url(#triangle-pattern-random);"></rect>
</svg>
