<?xml version="1.0" encoding="UTF-8"?>
<!DOCTYPE svg  PUBLIC '-//W3C//DTD SVG 1.1//EN'  'http://www.w3.org/Graphics/SVG/1.1/DTD/svg11.dtd'>
<svg width="400px" height="500px" viewBox="0 0 400 500" enable-background="new 0 0 400 500" xml:space="preserve" xmlns="http://www.w3.org/2000/svg">
<g fill="#EDEDED">
	<polygon points="344.72 3.109 338.24 14.313 331.76 25.516 357.68 25.516" enable-background="new    " opacity=".8954"/>
	<polygon points="316.41 8.275 312.92 14.313 309.43 20.349 323.4 20.349" enable-background="new    " opacity=".9328"/>
	<polygon points="302.26 16.657 306.03 10.104 298.48 10.104 300.37 13.403" enable-background="new    " opacity=".4354"/>
	<polygon points="245.64 20.12 253.41 6.642 237.88 6.642 241.76 13.428" enable-background="new    " opacity=".4148"/>
	<polygon points="143.63 14.313 140.7 19.388 152.44 19.388 146.57 9.237" enable-background="new    " opacity=".5298"/>
	<polygon points="132.41 16.911 136.48 9.851 128.35 9.851 130.38 13.405" enable-background="new    " opacity=".4527"/>
	<polygon points="104.1 17.182 108.48 9.579 99.727 9.579 101.92 13.407" enable-background="new    " opacity=".1983"/>
	<polygon points="19.184 15.293 21.388 11.467 16.979 11.467 18.081 13.394" enable-background="new    " opacity=".4149"/>
	<polygon points="352.26 44.091 365.49 44.091 358.87 32.791 355.56 38.441" enable-background="new    " opacity=".6471"/>
	<polygon points="337.81 31.412 341.26 37.591 344.72 43.478 351.63 31.412" enable-background="new    " opacity=".3707"/>
	<polygon points="330.56 36.128 329.21 38.441 327.86 40.754 333.27 40.754" enable-background="new    " opacity=".99"/>
	<polygon points="316.41 41.604 321.17 33.286 311.65 33.286 314.03 37.545" enable-background="new    " opacity=".7794"/>
	<polygon points="255 37.648 259.8 45.816 269.38 29.075 250.21 29.075" enable-background="new    " opacity=".9755"/>
	<polygon points="189.03 33.559 186.17 38.441 183.31 43.324 194.74 43.324" enable-background="new    " opacity=".3266"/>
	<polygon points="104.1 35.487 102.38 38.441 100.65 41.395 107.56 41.395" enable-background="new    " opacity=".6196"/>
	<polygon points="394.4 56.106 380.16 56.106 387.3 68.434" enable-background="new    " opacity=".307"/>
	<polygon points="387.33 75.677 383.62 69.268 383.52 69.437 379.6 62.68 375.68 55.815 375.83 55.815 373.02 50.964 365.88 63.32 358.72 75.677" enable-background="new    " opacity=".2866"/>
	<polygon points="342.73 63.32 340.75 66.747 348.69 66.747 344.72 59.892" enable-background="new    " opacity=".8531"/>
	<polygon points="330.56 67.24 336.16 57.529 324.97 57.529 327.77 62.423" enable-background="new    " opacity=".8067"/>
	<polygon points="322.42 68.507 316.41 58.133 313.41 63.32 310.41 68.507" enable-background="new    " opacity=".9144"/>
	<polygon points="259.58 53.473 259.95 52.845 259.8 52.583 253.58 63.319 247.37 74.057 272.23 74.057 260.31 53.473" enable-background="new    " opacity=".4033"/>
	<path d="m259.99 50.06l-0.36 0.614h0.716l-0.356-0.614zm0 0.019l0.333 0.576h-0.673l0.34-0.576z" enable-background="new    " opacity=".5243"/>
	<polygon points="259.99 50.079 259.65 50.655 260.32 50.655" enable-background="new    " opacity=".5243"/>
	<polygon points="259.99 50.079 259.65 50.655 260.32 50.655" enable-background="new    " opacity=".4033"/>
	<polygon points="203.18 62.291 202.59 63.319 201.99 64.349 204.37 64.349" enable-background="new    " opacity=".5391"/>
	<polygon points="75.799 65.476 79.358 59.294 72.24 59.294 74.019 62.409" enable-background="new    " opacity=".9396"/>
	<polygon points="47.491 67.89 53.833 56.878 41.151 56.878 44.323 62.428" enable-background="new    " opacity=".1043"/>
	<polygon points="385.27 87.449 383.37 90.704 390.99 90.704 387.18 84.194" enable-background="new    " opacity=".1032"/>
	<polygon points="339.42 81.82 342.07 86.565 344.72 91.077 350.02 81.82" enable-background="new    " opacity=".8608"/>
	<polygon points="316.41 91.538 322.24 81.359 310.58 81.359 313.5 86.577" enable-background="new    " opacity=".1627"/>
	<polygon points="231.49 91.322 237.07 81.575 225.91 81.575 228.7 86.571" enable-background="new    " opacity=".2038"/>
	<polygon points="217.34 85.567 216.23 87.449 215.13 89.331 219.54 89.331" enable-background="new    " opacity=".7514"/>
	<polygon points="118.26 89.041 121.23 83.856 115.29 83.856 116.78 86.514" enable-background="new    " opacity=".6732"/>
	<polygon points="382.77 111.46 387.18 119.04 395.99 103.73 378.37 103.73" enable-background="new    " opacity=".6242"/>
	<polygon points="373.02 106.85 369.86 112.33 366.68 117.8 379.37 117.8" enable-background="new    " opacity=".4908"/>
	<polygon points="344.72 108.22 342.34 112.33 339.96 116.43 349.48 116.43" enable-background="new    " opacity=".9084"/>
	<polygon points="321.75 103.73 326.16 111.46 330.56 119.05 339.38 103.73" enable-background="new    " opacity=".7222"/>
	<polygon points="302.26 117.92 309.77 104.86 294.74 104.86 298.5 111.45" enable-background="new    " opacity=".2964"/>
	<polygon points="271.55 111.42 273.95 115.57 278.76 107.21 269.14 107.21" enable-background="new    " opacity=".3356"/>
	<polygon points="256.87 112.33 253.94 117.39 265.65 117.39 259.8 107.27" enable-background="new    " opacity=".5717"/>
	<polygon points="235.1 102.23 240.37 111.47 245.64 120.55 256.19 102.23" enable-background="new    " opacity=".7032"/>
	<polygon points="203.18 106.09 199.57 112.33 195.96 118.57 210.41 118.57" enable-background="new    " opacity=".4062"/>
	<polygon points="174.88 109.18 173.05 112.33 171.23 115.48 178.52 115.48" enable-background="new    " opacity=".4371"/>
	<polygon points="116.72 112.33 115.18 114.99 121.34 114.99 118.26 109.67" enable-background="new    " opacity=".97"/>
	<polygon points="89.953 108.52 87.745 112.33 85.537 116.14 94.367 116.14" enable-background="new    " opacity=".6842"/>
	<polygon points="358.87 129.72 354.92 136.46 350.97 143.19 366.77 143.19" enable-background="new    " opacity=".1934"/>
	<polygon points="313.24 135.6 316.41 141 322.76 129.91 310.06 129.91" enable-background="new    " opacity=".9229"/>
	<polygon points="288.1 145.9 300.07 125 276.14 125 282.12 135.73" enable-background="new    " opacity=".5968"/>
	<polygon points="245.64 133.54 243.93 136.46 242.22 139.37 249.06 139.37" enable-background="new    " opacity=".7404"/>
	<polygon points="217.34 133.88 215.83 136.46 214.32 139.03 220.35 139.03" enable-background="new    " opacity=".9352"/>
	<polygon points="150.69 131.85 142.45 131.85 144.51 135.55 146.57 139.05" enable-background="new    " opacity=".8428"/>
	<polygon points="107.59 139.43 104.1 133.48 102.36 136.46 100.62 139.43" enable-background="new    " opacity=".868"/>
	<polygon points="89.953 139.3 94.36 131.6 85.544 131.6 87.748 135.55" enable-background="new    " opacity=".6004"/>
	<polygon points="380.34 154.45 383.76 160.45 387.18 166.34 394.02 154.45" enable-background="new    " opacity=".6312"/>
	<polygon points="343.04 161.34 341.37 164.23 348.07 164.23 344.72 158.44" enable-background="new    " opacity=".8553"/>
	<polygon points="327.71 160.44 330.56 165.35 336.27 155.44 324.86 155.44" enable-background="new    " opacity=".8625"/>
	<polygon points="302.26 169.78 313.06 151 291.45 151 296.85 160.48" enable-background="new    " opacity=".6168"/>
	<polygon points="271.47 160.44 273.95 164.7 278.91 156.08 268.99 156.08" enable-background="new    " opacity=".7699"/>
	<polygon points="214.12 160.45 217.34 165.98 223.77 154.8 210.9 154.8" enable-background="new    " opacity=".3277"/>
	<polygon points="131.37 160.41 132.41 162.2 134.5 158.58 130.33 158.58" enable-background="new    " opacity=".1241"/>
	<polygon points="87.502 161.34 85.054 165.56 94.851 165.56 89.953 157.11" enable-background="new    " opacity=".9212"/>
	<polygon points="44.6 157.88 46.046 160.42 47.491 162.9 50.383 157.88" enable-background="new    " opacity=".1958"/>
	<polygon points="17.963 160.41 19.184 162.51 21.624 158.27 16.743 158.27" enable-background="new    " opacity=".7747"/>
	<polygon points="5.029 158.9 3.617 161.34 2.202 163.78 7.859 163.78" enable-background="new    " opacity=".9636"/>
	<polygon points="384.21 185.46 381.24 190.52 393.11 190.52 387.18 180.4" enable-background="new    " opacity=".658"/>
	<polygon points="373.02 192.95 381.84 177.71 364.21 177.71 368.62 185.28" enable-background="new    " opacity=".201"/>
	<polygon points="299.54 175.45 276.67 175.45 282.39 185.27 288.1 195.21" enable-background="new    " opacity=".2314"/>
	<polygon points="245.64 181.9 243.55 185.46 241.46 189.03 249.83 189.03" enable-background="new    " opacity=".2399"/>
	<polygon points="230.08 185.32 231.49 187.77 234.31 182.9 228.67 182.9" enable-background="new    " opacity=".8782"/>
	<polygon points="130.16 185.46 127.9 189.31 136.93 189.31 132.41 181.62" enable-background="new    " opacity=".1743"/>
	<polygon points="46.143 185.46 44.791 187.77 50.193 187.77 47.491 183.16" enable-background="new    " opacity=".4957"/>
	<polygon points="377.63 201.09 382.4 209.49 387.18 217.7 396.73 201.09" enable-background="new    " opacity=".6823"/>
	<polygon points="353.3 204.55 356.09 209.45 358.87 214.24 364.45 204.55" enable-background="new    " opacity=".3629"/>
	<polygon points="338.17 202.79 322.96 202.79 326.76 209.47 330.56 216.01" enable-background="new    " opacity=".5521"/>
	<polygon points="269.9 209.47 273.95 216.44 282.05 202.35 265.85 202.35" enable-background="new    " opacity=".9143"/>
	<polygon points="220.68 206.49 214 206.49 215.66 209.43 217.34 212.3" enable-background="new    " opacity=".9122"/>
	<polygon points="203.18 203.95 199.48 210.34 195.77 216.73 210.6 216.73" enable-background="new    " opacity=".3357"/>
	<polygon points="189.03 215.4 195.93 203.4 182.12 203.4 185.58 209.46" enable-background="new    " opacity=".9785"/>
	<polygon points="170.85 210.34 166.82 217.29 182.94 217.29 174.88 203.4" enable-background="new    " opacity=".7635"/>
	<polygon points="160.72 210.92 162.48 207.87 158.97 207.87 159.84 209.41" enable-background="new    " opacity=".213"/>
	<polygon points="387.18 228.92 383.92 234.47 380.66 240.02 393.7 240.02" enable-background="new    " opacity=".4897"/>
	<polygon points="370.49 233.58 373.02 237.9 378.1 229.02 367.95 229.02" enable-background="new    " opacity=".8398"/>
	<polygon points="342.44 233.57 344.72 237.44 349.28 229.48 340.16 229.48" enable-background="new    " opacity=".1458"/>
	<polygon points="302.26 226.38 297.51 234.47 292.76 242.56 311.75 242.56" enable-background="new    " opacity=".8113"/>
	<polygon points="273.23 234.47 272.52 235.69 275.38 235.69 273.95 233.25" enable-background="new    " opacity=".287"/>
	<polygon points="255.68 233.66 259.8 240.67 268.04 226.25 251.55 226.25" enable-background="new    " opacity=".5817"/>
	<polygon points="242.77 236.92 248.52 236.92 245.64 232.02 244.21 234.47" enable-background="new    " opacity=".5352"/>
	<polygon points="203.18 235.78 205.83 231.15 200.54 231.15 201.86 233.53" enable-background="new    " opacity=".5913"/>
	<polygon points="71.597 234.47 67.395 241.63 84.203 241.63 75.799 227.31" enable-background="new    " opacity=".7712"/>
	<polygon points="44.395 234.47 41.298 239.75 53.686 239.75 47.49 229.19" enable-background="new    " opacity=".19"/>
	<polygon points="387.18 261.25 390.45 255.55 383.91 255.55 385.54 258.43" enable-background="new    " opacity=".8773"/>
	<polygon points="373.02 253.42 369.59 259.35 366.15 265.28 379.9 265.28" enable-background="new    " opacity=".6488"/>
	<polygon points="315.48 259.35 314.54 260.96 318.29 260.96 316.41 257.74" enable-background="new    " opacity=".1775"/>
	<polygon points="271.96 258.44 273.95 261.85 277.92 254.95 269.98 254.95" enable-background="new    " opacity=".4607"/>
	<polygon points="258.16 259.35 256.53 262.17 263.06 262.17 259.8 256.53" enable-background="new    " opacity=".9223"/>
	<polygon points="215.27 258.44 217.34 262 221.48 254.8 213.19 254.8" enable-background="new    " opacity=".5705"/>
	<polygon points="184.85 254.77 186.94 258.44 189.03 262.04 193.21 254.77" enable-background="new    " opacity=".4362"/>
	<polygon points="171.07 259.35 167.26 265.91 182.49 265.91 174.87 252.79" enable-background="new    " opacity=".7058"/>
	<polygon points="89.953 257.13 88.664 259.35 87.377 261.57 92.527 261.57" enable-background="new    " opacity=".5672"/>
	<polygon points="45.442 258.44 47.491 261.96 51.592 254.83 43.393 254.83" enable-background="new    " opacity=".837"/>
	<polygon points="387.18 278.19 383.71 284.23 380.24 290.27 394.12 290.27" enable-background="new    " opacity=".4077"/>
	<polygon points="357.44 284.23 356 286.73 361.75 286.73 358.87 281.72" enable-background="new    " opacity=".7849"/>
	<polygon points="344.72 289.18 351.47 277.5 337.96 277.5 341.34 283.31" enable-background="new    " opacity=".6823"/>
	<polygon points="309.97 277.77 313.19 283.31 316.41 288.91 322.85 277.77" enable-background="new    " opacity=".2616"/>
	<polygon points="286.45 283.33 288.1 286.2 291.41 280.48 284.8 280.48" enable-background="new    " opacity=".7747"/>
	<polygon points="198.68 283.3 203.18 291.12 212.17 275.56 194.19 275.56" enable-background="new    " opacity=".4565"/>
	<polygon points="172.74 283.32 174.87 287.04 179.16 279.64 170.6 279.64" enable-background="new    " opacity=".9673"/>
	<polygon points="61.645 287.78 66.783 278.9 56.506 278.9 59.075 283.32" enable-background="new    " opacity=".1923"/>
	<polygon points="389.02 305.8 385.33 305.8 386.26 307.42 387.18 309.01" enable-background="new    " opacity=".7819"/>
	<polygon points="352.89 302.2 355.88 307.47 358.87 312.61 364.86 302.2" enable-background="new    " opacity=".225"/>
	<polygon points="329.75 307.42 330.56 308.83 332.2 305.98 328.93 305.98" enable-background="new    " opacity=".9569"/>
	<polygon points="315.43 308.36 314.45 310.04 318.37 310.04 316.41 306.67" enable-background="new    " opacity=".9697"/>
	<polygon points="256.84 308.36 253.89 313.45 265.71 313.45 259.8 303.27" enable-background="new    " opacity=".6999"/>
	<polygon points="200.2 308.36 197.21 313.5 209.15 313.5 203.18 303.22" enable-background="new    " opacity=".4617"/>
	<polygon points="87.766 308.36 85.581 312.12 94.325 312.12 89.953 304.6" enable-background="new    " opacity=".9996"/>
	<polygon points="19.184 309.05 21.073 305.76 17.294 305.76 18.239 307.42" enable-background="new    " opacity=".4774"/>
	<polygon points="382.33 336.61 392.03 336.61 387.18 328.36 384.76 332.49" enable-background="new    " opacity=".1995"/>
	<polygon points="215.79 332.49 214.24 335.12 220.43 335.12 217.34 329.86" enable-background="new    " opacity=".4523"/>
	<polygon points="189.03 329.08 187.02 332.49 185.02 335.9 193.03 335.9" enable-background="new    " opacity=".5453"/>
	<polygon points="143.98 332.33 146.57 336.82 151.74 327.87 141.39 327.87" enable-background="new    " opacity=".5809"/>
	<polygon points="132.41 330.26 131.1 332.49 129.8 334.71 135.03 334.71" enable-background="new    " opacity=".6972"/>
	<polygon points="53.752 325.52 57.699 332.32 61.645 339.17 69.537 325.52" enable-background="new    " opacity=".7871"/>
	<polygon points="383.94 356.49 387.18 362.05 393.67 350.76 380.69 350.76" enable-background="new    " opacity=".6245"/>
	<polygon points="353.05 351.34 355.96 356.48 358.87 361.48 364.69 351.34" enable-background="new    " opacity=".7505"/>
	<polygon points="286.28 357.36 284.46 360.5 291.74 360.5 288.1 354.23" enable-background="new    " opacity=".153"/>
	<polygon points="270.99 356.48 273.95 361.56 279.88 351.25 268.02 351.25" enable-background="new    " opacity=".897"/>
	<polygon points="383.36 381.5 379.55 387.98 394.81 387.98 387.18 375.01" enable-background="new    " opacity=".2332"/>
	<polygon points="340.6 376.87 342.66 380.58 344.72 384.07 348.83 376.87" enable-background="new    " opacity=".6502"/>
	<polygon points="302.26 375.89 298.96 381.49 295.66 387.1 308.85 387.1" enable-background="new    " opacity=".91"/>
	<polygon points="229.54 380.58 231.49 383.89 235.4 377.05 227.58 377.05" enable-background="new    " opacity=".483"/>
	<polygon points="117.6 380.51 118.26 381.63 119.58 379.32 116.94 379.32" enable-background="new    " opacity=".4053"/>
	<polygon points="18.072 381.49 16.96 383.38 21.408 383.38 19.184 379.6" enable-background="new    " opacity=".3175"/>
	<polygon points="383.61 405.5 387.18 411.63 394.32 399.19 380.03 399.19" enable-background="new    " opacity=".1889"/>
	<polygon points="373.02 402.64 370.86 406.37 368.69 410.1 377.37 410.1" enable-background="new    " opacity=".7684"/>
	<polygon points="358.87 408.48 362.4 402.34 355.34 402.34 357.11 405.46" enable-background="new    " opacity=".9495"/>
	<polygon points="343.26 406.37 341.8 408.89 347.64 408.89 344.72 403.86" enable-background="new    " opacity=".7027"/>
	<polygon points="312.38 406.37 308.36 413.3 324.46 413.3 316.41 399.45" enable-background="new    " opacity=".4013"/>
	<polygon points="189.03 408.06 192.07 402.77 185.99 402.77 187.51 405.45" enable-background="new    " opacity=".4276"/>
	<polygon points="174.32 406.37 173.76 407.33 175.99 407.33 174.87 405.41" enable-background="new    " opacity=".5902"/>
	<polygon points="132.41 407.57 134.9 403.25 129.93 403.25 131.17 405.44" enable-background="new    " opacity=".9468"/>
	<polygon points="100.2 405.51 104.1 412.21 111.92 398.61 96.29 398.61" enable-background="new    " opacity=".3642"/>
	<polygon points="373.02 433.22 376.34 427.48 369.71 427.48 371.37 430.35" enable-background="new    " opacity=".9271"/>
	<polygon points="364.04 435.74 358.87 426.76 356.29 431.25 353.71 435.74" enable-background="new    " opacity=".1715"/>
	<polygon points="344.72 434.95 350.03 425.75 339.4 425.75 342.06 430.34" enable-background="new    " opacity=".6467"/>
	<polygon points="286.75 430.35 288.1 432.7 290.81 428 285.39 428" enable-background="new    " opacity=".2306"/>
	<polygon points="270.33 431.25 266.72 437.54 281.18 437.54 273.95 424.97" enable-background="new    " opacity=".6001"/>
	<polygon points="159.34 431.25 157.96 433.65 163.48 433.65 160.72 428.85" enable-background="new    " opacity=".8516"/>
	<polygon points="145.26 430.35 146.57 432.61 149.18 428.09 143.96 428.09" enable-background="new    " opacity=".4673"/>
	<polygon points="130.66 431.25 128.9 434.3 135.92 434.3 132.41 428.2" enable-background="new    " opacity=".4469"/>
	<polygon points="87.825 430.34 89.953 434.03 94.204 426.67 85.701 426.67" enable-background="new    " opacity=".2278"/>
	<polygon points="72.36 431.25 68.921 437.23 82.677 437.23 75.799 425.27" enable-background="new    " opacity=".9385"/>
	<polygon points="370.11 455.38 367.19 460.39 378.86 460.39 373.02 450.37" enable-background="new    " opacity=".1778"/>
	<polygon points="369.58 445.09 348.17 445.09 353.52 454.56 358.87 463.74" enable-background="new    " opacity=".41"/>
	<polygon points="300.22 454.47 302.26 457.96 306.33 450.87 298.19 450.87" enable-background="new    " opacity=".8411"/>
	<polygon points="215.75 454.46 217.34 457.18 220.51 451.65 214.16 451.65" enable-background="new    " opacity=".6516"/>
	<polygon points="159.51 454.45 160.72 456.52 163.14 452.3 158.3 452.3" enable-background="new    " opacity=".3368"/>
	<polygon points="357.14 479.51 355.42 482.44 362.33 482.44 358.87 476.58" enable-background="new    " opacity=".7643"/>
	<polygon points="342.43 479.35 344.72 483.32 349.3 475.38 340.13 475.38" enable-background="new    " opacity=".2573"/>
	<polygon points="329.73 479.51 328.9 480.92 332.22 480.92 330.56 478.1" enable-background="new    " opacity=".1154"/>
	<polygon points="300.66 479.51 299.06 482.22 305.45 482.22 302.26 476.8" enable-background="new    " opacity=".9893"/>
	<polygon points="258.21 479.35 259.8 482.1 262.97 476.61 256.62 476.61" enable-background="new    " opacity=".2176"/>
	<polygon points="241.51 479.51 237.38 486.52 253.9 486.52 245.64 472.5" enable-background="new    " opacity=".1049"/>
	<polygon points="186.17 479.51 183.32 484.36 194.74 484.36 189.03 474.66" enable-background="new    " opacity=".724"/>
	<polygon points="102.83 479.51 101.56 481.67 106.65 481.67 104.1 477.35" enable-background="new    " opacity=".5727"/>
	<polygon points="31.262 479.35 33.338 482.95 37.487 475.76 29.188 475.76" enable-background="new    " opacity=".1077"/>
	<polygon points="3.432 479.35 5.029 482.12 8.227 476.59 1.834 476.59" enable-background="new    " opacity=".7746"/>
</g>
</svg>
