<?xml version="1.0" encoding="UTF-8"?>
<!DOCTYPE svg  PUBLIC '-//W3C//DTD SVG 1.1//EN'  'http://www.w3.org/Graphics/SVG/1.1/DTD/svg11.dtd'>
<svg width="400px" height="500px" viewBox="0 0 400 500" enable-background="new 0 0 400 500" xml:space="preserve" xmlns="http://www.w3.org/2000/svg" >
<g fill="#EDEDED">
	<polygon points="41.501 473.25 37.82 479.64 45.182 479.64 43.342 476.42" enable-background="new    " opacity=".6001"/>
	<polygon points="43.005 464.58 55.654 486.44 61.98 475.51 68.304 464.58" enable-background="new    " opacity=".8954"/>
	<polygon points="69.808 472.08 64.786 480.8 74.83 480.8 72.319 476.41" enable-background="new    " opacity=".6701"/>
	<polygon points="98.116 474.03 95.338 478.85 100.89 478.85 99.504 476.43" enable-background="new    " opacity=".4354"/>
	<polygon points="154.73 468.64 145.75 484.24 163.71 484.24 159.22 476.39" enable-background="new    " opacity=".4148"/>
	<polygon points="225.5 478.95 227.48 475.51 229.47 472.08 221.52 472.08" enable-background="new    " opacity=".1099"/>
	<polygon points="253.81 480.2 256.52 475.51 259.23 470.82 248.38 470.82" enable-background="new    " opacity=".5298"/>
	<polygon points="267.96 473.64 264.73 479.24 271.19 479.24 269.57 476.42" enable-background="new    " opacity=".4527"/>
	<polygon points="296.27 473.28 292.63 479.6 299.91 479.6 298.09 476.42" enable-background="new    " opacity=".1983"/>
	<polygon points="13.193 453.81 14.615 451.38 16.037 448.95 10.349 448.95" enable-background="new    " opacity=".3642"/>
	<polygon points="44.932 451.38 48.363 445.52 34.639 445.52 41.501 457.24" enable-background="new    " opacity=".896"/>
	<polygon points="83.962 448.64 79.68 456.12 88.244 456.12 86.104 452.29" enable-background="new    " opacity=".7794"/>
	<polygon points="138.4 441.47 138 440.78 113.98 440.78 126.39 461.99 132.6 451.38" enable-background="new    " opacity=".5243"/>
	<polygon points="144.76 452.2 140.58 445.07 132.21 459.68 148.95 459.68" enable-background="new    " opacity=".9755"/>
	<polygon points="168.88 447.84 163.69 456.91 174.08 456.91 171.48 452.27" enable-background="new    " opacity=".3177"/>
	<polygon points="211.34 454.96 213.44 451.38 215.53 447.8 207.15 447.8" enable-background="new    " opacity=".3266"/>
	<polygon points="267.96 459.07 272.46 451.38 276.96 443.7 258.96 443.7" enable-background="new    " opacity=".7897"/>
	<polygon points="282.11 450.49 279.95 454.27 284.28 454.27 283.19 452.33" enable-background="new    " opacity=".9709"/>
	<polygon points="297.75 451.38 299.24 448.84 293.29 448.84 296.27 453.92" enable-background="new    " opacity=".6196"/>
	<polygon points="6.589 433.18 19.59 433.18 13.072 421.92" enable-background="new    " opacity=".307"/>
	<path d="m14.587 420.71l-0.097 0.168 7.697 13.296h0.152l-3.877-6.784-3.875-6.68zm7.562 13.396l-7.618-13.162 0.095-0.165 3.837 6.611 3.837 6.716h-0.151z" enable-background="new    " opacity=".2866"/>
	<polygon points="14.626 420.78 14.531 420.94 22.149 434.1 22.3 434.1 18.463 427.39" enable-background="new    " opacity=".307"/>
	<polygon points="14.626 420.78 14.531 420.94 22.149 434.1 22.3 434.1 18.463 427.39" enable-background="new    " opacity=".2866"/>
	<polygon points="36.154 432.08 46.848 432.08 44.173 427.4 41.501 422.8" enable-background="new    " opacity=".8999"/>
	<polygon points="57.52 426.5 59.385 423.28 51.923 423.28 55.654 429.73" enable-background="new    " opacity=".8531"/>
	<polygon points="69.808 421.53 63.005 433.35 76.611 433.35 73.209 427.39" enable-background="new    " opacity=".8067"/>
	<polygon points="152.76 415.98 128.39 415.98 140.07 436.16 140.79 436.16 140.43 436.77 140.58 437.03 146.67 426.5" enable-background="new    " opacity=".4033"/>
	<path d="m140.38 439.78l0.384-0.654h-0.763l0.379 0.654zm1e-3 -0.081l-0.284-0.492h0.571l-0.287 0.492z" enable-background="new    " opacity=".4033"/>
	<polygon points="140.38 439.7 140.67 439.21 140.1 439.21" enable-background="new    " opacity=".5243"/>
	<polygon points="140.38 439.7 140.67 439.21 140.1 439.21" enable-background="new    " opacity=".4033"/>
	<polygon points="170.38 426.5 171.88 423.91 165.88 423.91 168.88 429.1" enable-background="new    " opacity=".9996"/>
	<polygon points="197.19 427.28 197.64 426.5 198.09 425.73 196.3 425.73" enable-background="new    " opacity=".5391"/>
	<polygon points="211.34 419.72 202.45 435.16 220.23 435.16 215.79 427.38" enable-background="new    " opacity=".6559"/>
	<polygon points="352.88 422.62 347.33 432.26 358.44 432.26 355.66 427.4" enable-background="new    " opacity=".1043"/>
	<polygon points="58.26 403.26 55.654 398.82 50.445 407.92 60.864 407.92" enable-background="new    " opacity=".8608"/>
	<polygon points="83.962 399.16 79.132 407.59 88.792 407.59 86.376 403.27" enable-background="new    " opacity=".1627"/>
	<polygon points="168.88 398.02 162.75 408.73 175.02 408.73 171.95 403.24" enable-background="new    " opacity=".2038"/>
	<polygon points="183.04 404.17 184.09 402.37 185.14 400.58 180.93 400.58" enable-background="new    " opacity=".7514"/>
	<polygon points="282.11 400.74 279.1 406 285.12 406 283.62 403.31" enable-background="new    " opacity=".6732"/>
	<polygon points="17.375 378.37 13.193 371.17 4.83 385.7 21.556 385.7" enable-background="new    " opacity=".6242"/>
	<polygon points="20.591 371.67 27.347 383.33 30.723 377.5 34.103 371.67" enable-background="new    " opacity=".4908"/>
	<polygon points="45.676 378.37 41.501 371.18 33.15 385.69 49.852 385.69" enable-background="new    " opacity=".896"/>
	<polygon points="69.808 370.48 60.648 386.39 78.969 386.39 74.388 378.36" enable-background="new    " opacity=".7222"/>
	<polygon points="84.601 377.5 85.239 376.39 82.684 376.39 83.962 378.6" enable-background="new    " opacity=".3108"/>
	<polygon points="128.59 378.4 126.42 374.67 122.08 382.2 130.76 382.2" enable-background="new    " opacity=".3356"/>
	<polygon points="140.58 381.83 143.09 377.5 145.6 373.16 135.56 373.16" enable-background="new    " opacity=".5717"/>
	<polygon points="160.03 378.35 154.73 369.23 144.13 387.64 165.33 387.64" enable-background="new    " opacity=".7032"/>
	<polygon points="206.38 382.75 216.31 382.75 213.82 378.4 211.34 374.12" enable-background="new    " opacity=".4428"/>
	<polygon points="225.5 380.21 227.07 377.5 228.64 374.78 222.35 374.78" enable-background="new    " opacity=".4371"/>
	<polygon points="283.26 377.5 284.4 375.52 279.82 375.52 282.11 379.48" enable-background="new    " opacity=".97"/>
	<polygon points="44.942 353.37 48.385 347.49 34.617 347.49 41.501 359.24" enable-background="new    " opacity=".1934"/>
	<polygon points="116.69 354.17 112.27 346.65 103.44 362.09 121.1 362.09" enable-background="new    " opacity=".5968"/>
	<polygon points="128.74 353.37 131.06 349.41 121.78 349.41 126.42 357.32" enable-background="new    " opacity=".2935"/>
	<polygon points="140.58 352.57 138.52 356.17 142.64 356.17 141.61 354.32" enable-background="new    " opacity=".1492"/>
	<polygon points="183.04 355.57 184.33 353.37 185.62 351.16 180.45 351.16" enable-background="new    " opacity=".9352"/>
	<polygon points="255.72 354.28 253.81 351.02 249.98 357.72 257.63 357.72" enable-background="new    " opacity=".8428"/>
	<polygon points="44.285 329.38 41.501 324.59 35.932 334.27 47.071 334.27" enable-background="new    " opacity=".6073"/>
	<polygon points="55.654 330.76 56.971 328.49 58.289 326.22 53.021 326.22" enable-background="new    " opacity=".8553"/>
	<polygon points="65.259 333.38 74.357 333.38 72.082 329.39 69.808 325.48" enable-background="new    " opacity=".8625"/>
	<polygon points="102.06 329.36 98.116 322.58 90.227 336.29 106 336.29" enable-background="new    " opacity=".6168"/>
	<polygon points="160.3 334.27 157.52 329.38 154.73 324.59 149.16 334.27" enable-background="new    " opacity=".3577"/>
	<polygon points="183.04 323.55 176.27 335.31 189.8 335.31 186.42 329.37" enable-background="new    " opacity=".3277"/>
	<polygon points="266.22 330.94 269.7 330.94 268.83 329.42 267.96 327.92" enable-background="new    " opacity=".1241"/>
	<polygon points="310.42 332.54 312.77 328.49 315.12 324.44 305.72 324.44" enable-background="new    " opacity=".9212"/>
	<polygon points="349.82 332.09 355.94 332.09 354.41 329.4 352.88 326.77" enable-background="new    " opacity=".1958"/>
	<polygon points="381.19 327.72 379.23 331.14 383.15 331.14 382.17 329.41" enable-background="new    " opacity=".7747"/>
	<polygon points="395.34 330.89 396.73 328.49 398.12 326.09 392.56 326.09" enable-background="new    " opacity=".9636"/>
	<polygon points="36.971 312.81 32.159 304.55 27.347 296.18 17.723 312.81" enable-background="new    " opacity=".201"/>
	<polygon points="33.852 297.84 41.501 310.88 45.326 304.36 49.15 297.84" enable-background="new    " opacity=".4758"/>
	<polygon points="154.73 307.76 156.72 304.36 158.72 300.96 150.74 300.96" enable-background="new    " opacity=".2399"/>
	<polygon points="225.5 303.13 223.92 305.86 227.08 305.86 226.29 304.5" enable-background="new    " opacity=".7029"/>
	<polygon points="271.65 301.22 264.27 301.22 267.96 307.5 269.8 304.36" enable-background="new    " opacity=".1743"/>
	<polygon points="308.08 306.52 312.76 306.52 311.59 304.51 310.42 302.47" enable-background="new    " opacity=".5644"/>
	<polygon points="17.522 280.35 13.193 272.9 4.537 287.95 21.849 287.95" enable-background="new    " opacity=".9608"/>
	<polygon points="47.58 285.71 44.539 280.37 41.501 275.14 35.421 285.71" enable-background="new    " opacity=".3629"/>
	<polygon points="72.957 280.37 69.808 274.95 63.512 285.9 76.104 285.9" enable-background="new    " opacity=".5521"/>
	<polygon points="96.591 281.75 99.639 281.75 98.877 280.41 98.116 279.1" enable-background="new    " opacity=".6262"/>
	<polygon points="133.92 286.94 130.17 280.36 126.42 273.91 118.93 286.94" enable-background="new    " opacity=".9143"/>
	<polygon points="171.6 279.48 174.32 274.8 163.45 274.8 168.88 284.16" enable-background="new    " opacity=".568"/>
	<polygon points="180.24 282.86 185.84 282.86 184.44 280.4 183.04 277.99" enable-background="new    " opacity=".9122"/>
	<polygon points="189.81 273.12 197.19 285.84 200.88 279.48 204.57 273.12" enable-background="new    " opacity=".3357"/>
	<polygon points="214.73 280.36 211.34 274.54 204.58 286.31 218.11 286.31" enable-background="new    " opacity=".9785"/>
	<polygon points="225.5 286.25 229.42 279.48 233.35 272.71 217.64 272.71" enable-background="new    " opacity=".7635"/>
	<polygon points="239.65 279.12 238.14 281.74 241.16 281.74 240.4 280.41" enable-background="new    " opacity=".213"/>
	<polygon points="13.193 261.93 17.054 255.35 20.914 248.78 5.474 248.78" enable-background="new    " opacity=".4897"/>
	<polygon points="29.508 256.26 27.347 252.58 23.023 260.14 31.67 260.14" enable-background="new    " opacity=".8398"/>
	<polygon points="41.501 258.12 43.129 255.35 44.756 252.58 38.246 252.58" enable-background="new    " opacity=".4569"/>
	<polygon points="58.329 256.23 55.654 251.68 50.303 261.04 61.006 261.04" enable-background="new    " opacity=".1458"/>
	<polygon points="85.109 256.31 83.962 254.36 81.666 258.37 86.257 258.37" enable-background="new    " opacity=".8221"/>
	<polygon points="102.5 255.35 106.89 247.88 89.342 247.88 98.116 262.82" enable-background="new    " opacity=".8113"/>
	<polygon points="127.02 255.35 127.62 254.33 125.23 254.33 126.42 256.37" enable-background="new    " opacity=".287"/>
	<polygon points="143.48 256.22 140.58 251.29 134.78 261.43 146.38 261.43" enable-background="new    " opacity=".5817"/>
	<polygon points="157.58 252.92 151.88 252.92 154.73 257.78 156.16 255.35" enable-background="new    " opacity=".5352"/>
	<polygon points="194.68 258.56 199.7 258.56 198.45 256.3 197.19 254.16" enable-background="new    " opacity=".5913"/>
	<polygon points="254.82 256.31 253.81 254.6 251.78 258.13 255.83 258.13" enable-background="new    " opacity=".5815"/>
	<polygon points="312.53 256.26 310.42 252.68 306.21 260.05 314.64 260.05" enable-background="new    " opacity=".9701"/>
	<polygon points="10.322 233.92 16.065 233.92 14.629 231.39 13.193 228.93" enable-background="new    " opacity=".8773"/>
	<polygon points="27.347 235.33 30.165 230.47 32.981 225.62 21.713 225.62" enable-background="new    " opacity=".6488"/>
	<polygon points="72.263 233.56 71.036 231.4 69.808 229.29 67.353 233.56" enable-background="new    " opacity=".8008"/>
	<polygon points="84.8 230.47 85.637 229.03 82.287 229.03 83.962 231.92" enable-background="new    " opacity=".1775"/>
	<polygon points="127.99 231.39 126.42 228.7 123.29 234.15 129.56 234.15" enable-background="new    " opacity=".4607"/>
	<polygon points="140.58 232.71 141.88 230.47 143.18 228.23 137.98 228.23" enable-background="new    " opacity=".9223"/>
	<polygon points="185.16 231.38 183.04 227.74 178.8 235.1 187.27 235.1" enable-background="new    " opacity=".5705"/>
	<polygon points="215.76 235.27 213.56 231.38 211.35 227.58 206.93 235.27" enable-background="new    " opacity=".4362"/>
	<polygon points="228.95 230.47 232.4 224.53 218.6 224.53 225.5 236.42" enable-background="new    " opacity=".7058"/>
	<polygon points="311.72 230.47 313.02 228.24 307.82 228.24 310.42 232.71" enable-background="new    " opacity=".5672"/>
	<polygon points="354.47 231.39 352.88 228.66 349.7 234.19 356.06 234.19" enable-background="new    " opacity=".837"/>
	<polygon points="20.12 199.56 6.267 199.56 13.193 211.63 16.657 205.59" enable-background="new    " opacity=".4077"/>
	<polygon points="43.654 203.72 39.347 203.72 41.501 207.47 42.577 205.59" enable-background="new    " opacity=".7849"/>
	<polygon points="58.638 206.51 55.654 201.32 49.685 211.64 61.623 211.64" enable-background="new    " opacity=".6823"/>
	<polygon points="186.81 205.59 190.58 199.03 175.5 199.03 183.04 212.16" enable-background="new    " opacity=".8563"/>
	<polygon points="338.73 202.18 333.75 210.79 343.71 210.79 341.22 206.5" enable-background="new    " opacity=".1923"/>
	<polygon points="367.04 204.29 364.5 208.67 369.57 208.67 368.3 206.49" enable-background="new    " opacity=".4888"/>
	<polygon points="13.193 181.03 11.599 183.81 14.787 183.81 13.991 182.4" enable-background="new    " opacity=".7819"/>
	<polygon points="44.426 182.35 41.501 177.33 35.647 187.51 47.354 187.51" enable-background="new    " opacity=".225"/>
	<polygon points="70.51 182.4 69.808 181.2 68.404 183.64 71.211 183.64" enable-background="new    " opacity=".9569"/>
	<polygon points="146.12 176.7 135.04 176.7 140.58 186.23 143.35 181.46" enable-background="new    " opacity=".6999"/>
	<polygon points="202.8 176.64 191.58 176.64 197.19 186.29 199.99 181.46" enable-background="new    " opacity=".4617"/>
	<polygon points="382.05 182.4 381.19 180.93 379.47 183.91 382.91 183.91" enable-background="new    " opacity=".4774"/>
	<polygon points="98.116 161.63 100.64 157.34 103.17 153.04 93.064 153.04" enable-background="new    " opacity=".7525"/>
	<polygon points="184.51 157.34 185.99 154.83 180.09 154.83 183.04 159.85" enable-background="new    " opacity=".4523"/>
	<polygon points="197.19 155.32 194.69 159.64 199.69 159.64 198.44 157.49" enable-background="new    " opacity=".2203"/>
	<polygon points="211.35 160.43 213.17 157.34 214.98 154.24 207.71 154.24" enable-background="new    " opacity=".5453"/>
	<polygon points="270.32 155.33 265.6 155.33 267.96 159.34 269.14 157.34" enable-background="new    " opacity=".6972"/>
	<polygon points="341.06 157.49 338.73 153.44 334.05 161.52 343.4 161.52" enable-background="new    " opacity=".7871"/>
	<polygon points="16.798 133.33 13.193 127.14 5.983 139.69 20.403 139.69" enable-background="new    " opacity=".6245"/>
	<polygon points="48.079 139.14 44.79 133.34 41.501 127.69 34.922 139.14" enable-background="new    " opacity=".7505"/>
	<polygon points="55.654 137.03 58.313 132.46 60.971 127.88 50.338 127.88" enable-background="new    " opacity=".8562"/>
	<polygon points="73.054 133.34 69.808 127.77 63.316 139.06 76.301 139.06" enable-background="new    " opacity=".9017"/>
	<polygon points="112.27 135.31 113.93 132.46 115.58 129.6 108.95 129.6" enable-background="new    " opacity=".153"/>
	<polygon points="129.26 133.35 126.42 128.48 120.75 138.35 132.09 138.35" enable-background="new    " opacity=".897"/>
	<polygon points="132.26 125.3 140.58 139.61 144.74 132.46 148.9 125.3" enable-background="new    " opacity=".3103"/>
	<polygon points="197.19 140.07 201.62 132.46 206.04 124.84 188.34 124.84" enable-background="new    " opacity=".69"/>
	<polygon points="18.108 108.33 23.022 99.974 3.364 99.974 13.193 116.69" enable-background="new    " opacity=".2332"/>
	<polygon points="25.552 110.92 29.141 110.92 28.244 109.3 27.347 107.78" enable-background="new    " opacity=".4463"/>
	<polygon points="101.07 108.33 104.02 103.31 92.207 103.31 98.116 113.35" enable-background="new    " opacity=".91"/>
	<polygon points="114.94 111.69 113.6 109.28 112.27 107.02 109.6 111.69" enable-background="new    " opacity=".3568"/>
	<polygon points="171 109.24 168.88 105.66 164.66 113.05 173.11 113.05" enable-background="new    " opacity=".483"/>
	<polygon points="282.73 109.32 282.11 108.28 280.88 110.42 283.34 110.42" enable-background="new    " opacity=".4053"/>
	<polygon points="393.15 111.27 397.53 111.27 396.44 109.29 395.34 107.44" enable-background="new    " opacity=".2905"/>
	<polygon points="16.333 84.329 13.193 78.945 6.914 89.878 19.474 89.878" enable-background="new    " opacity=".1889"/>
	<polygon points="41.501 82.036 38.772 86.787 44.229 86.787 42.865 84.376" enable-background="new    " opacity=".9495"/>
	<polygon points="87.484 83.45 91.006 77.394 76.918 77.394 83.962 89.506" enable-background="new    " opacity=".4013"/>
	<polygon points="186.24 84.328 183.04 78.837 176.63 89.986 189.44 89.986" enable-background="new    " opacity=".5491"/>
	<polygon points="211.35 82.354 208.98 86.468 213.71 86.468 212.53 84.381" enable-background="new    " opacity=".4276"/>
	<polygon points="225.91 83.45 226.32 82.74 224.67 82.74 225.5 84.161" enable-background="new    " opacity=".5902"/>
	<polygon points="296.27 77.804 288.68 91.021 303.86 91.021 300.06 84.313" enable-background="new    " opacity=".3642"/>
	<polygon points="28.716 59.476 27.347 57.105 24.61 61.84 30.084 61.84" enable-background="new    " opacity=".9271"/>
	<polygon points="37.541 55.13 41.501 62.014 43.48 58.571 45.46 55.13" enable-background="new    " opacity=".1715"/>
	<polygon points="55.654 55.532 51.101 63.415 60.208 63.415 57.932 59.478" enable-background="new    " opacity=".6467"/>
	<polygon points="86.411 59.478 83.962 55.233 79.063 63.713 88.86 63.713" enable-background="new    " opacity=".8094"/>
	<polygon points="113.39 59.476 112.27 57.535 110.03 61.413 114.51 61.413" enable-background="new    " opacity=".2306"/>
	<polygon points="126.42 64.951 130.09 58.571 133.76 52.191 119.08 52.191" enable-background="new    " opacity=".6001"/>
	<polygon points="239.65 60.33 240.66 58.571 241.68 56.813 237.63 56.813" enable-background="new    " opacity=".8516"/>
	<polygon points="269.82 58.571 271.69 55.333 264.23 55.333 267.96 61.811" enable-background="new    " opacity=".4469"/>
	<polygon points="312.5 59.478 310.42 55.88 306.27 63.067 314.57 63.067" enable-background="new    " opacity=".2278"/>
	<polygon points="324.57 64.758 328.13 58.571 331.69 52.385 317.46 52.385" enable-background="new    " opacity=".9385"/>
	<polygon points="14.572 35.371 13.193 33.008 10.436 37.81 15.951 37.81" enable-background="new    " opacity=".1996"/>
	<polygon points="30.219 34.442 33.092 29.508 21.602 29.508 27.347 39.378" enable-background="new    " opacity=".1778"/>
	<polygon points="30.285 45.175 52.716 45.175 47.109 35.251 41.501 25.644" enable-background="new    " opacity=".8563"/>
	<polygon points="70.592 35.386 69.808 34.042 68.239 36.775 71.376 36.775" enable-background="new    " opacity=".418"/>
	<polygon points="100.07 35.354 98.116 32.008 94.21 38.809 102.02 38.809" enable-background="new    " opacity=".8411"/>
	<polygon points="213.72 35.342 211.35 31.271 206.59 39.547 216.1 39.547" enable-background="new    " opacity=".7104"/>
	<polygon points="314.44 34.442 318.46 27.538 302.38 27.538 310.42 41.348" enable-background="new    " opacity=".99"/>
	<polygon points="43.236 10.313 44.971 7.369 38.031 7.369 41.501 13.258" enable-background="new    " opacity=".7643"/>
	<polygon points="58.03 10.471 55.654 6.356 50.904 14.583 60.404 14.583" enable-background="new    " opacity=".2573"/>
	<polygon points="99.604 10.313 101.09 7.787 95.138 7.787 98.116 12.842" enable-background="new    " opacity=".9893"/>
	<polygon points="116.98 10.473 112.27 2.314 102.85 18.624 121.68 18.624" enable-background="new    " opacity=".1438"/>
	<polygon points="141.97 10.47 140.58 8.054 137.79 12.885 143.36 12.885" enable-background="new    " opacity=".2176"/>
	<polygon points="158.39 10.313 162.05 4.103 147.41 4.103 154.73 16.525" enable-background="new    " opacity=".1049"/>
	<polygon points="213.94 10.313 216.54 5.906 206.16 5.906 211.35 14.722" enable-background="new    " opacity=".724"/>
	<polygon points="367.04 6.288 362.21 14.65 371.86 14.65 369.45 10.471" enable-background="new    " opacity=".1077"/>
	<polygon points="396.95 10.47 395.34 7.683 392.12 13.255 398.56 13.255" enable-background="new    " opacity=".7746"/>
</g>
</svg>
